<svg width="60" height="60" viewBox="0 0 60 60" fill="none" xmlns="http://www.w3.org/2000/svg">
<path fill-rule="evenodd" clip-rule="evenodd" d="M30.3942 60C44.8043 60 56.8722 50.1019 60 36.8182H47.7241C44.9789 43.6098 38.2544 48.4091 30.3942 48.4091C28.7218 48.4091 27.1009 48.1918 25.5587 47.7843V59.6224C27.1335 59.8709 28.7486 60 30.3942 60ZM47.7242 23.1819H60C56.8723 9.89809 44.8043 0 30.3942 0C13.6079 0 0 13.4315 0 30C0 39.63 4.597 48.2002 11.7432 53.6894V29.3182H11.7557C12.1191 19.467 20.3248 11.5909 30.3942 11.5909C38.2544 11.5909 44.979 16.3902 47.7242 23.1819ZM36.6112 19.0909C36.6112 20.2206 37.539 21.1364 38.6835 21.1364C39.8281 21.1364 40.7559 20.2206 40.7559 19.0909C40.7559 17.9612 39.8281 17.0454 38.6835 17.0454C37.539 17.0454 36.6112 17.9612 36.6112 19.0909ZM36.9973 30C36.9973 33.7655 33.9046 36.8181 30.0896 36.8181C26.2745 36.8181 23.1818 33.7655 23.1818 30C23.1818 26.2344 26.2745 23.1818 30.0896 23.1818C33.9046 23.1818 36.9973 26.2344 36.9973 30Z" fill="url(#paint0_linear_2031_181)"/>
<defs>
<linearGradient id="paint0_linear_2031_181" x1="7.5" y1="8.5" x2="43.5" y2="60" gradientUnits="userSpaceOnUse">
<stop offset="0.26" stop-color="#C343FF"/>
<stop offset="0.615" stop-color="#EFCDFF"/>
<stop offset="1" stop-color="#E7CA34"/>
</linearGradient>
</defs>
</svg>
