<svg width="128" height="128" viewBox="0 0 128 128" fill="none" xmlns="http://www.w3.org/2000/svg">
<g clip-path="url(#clip0_2031_347)">
<path d="M12.5 71.7744C11.1201 71.7744 10 72.8945 10 74.2744C10 75.6543 11.1201 76.7744 12.5 76.7744C13.8799 76.7744 15 75.6543 15 74.2744C15 72.8945 13.8799 71.7744 12.5 71.7744Z" fill="#B81DDA"/>
<path d="M114.905 80.4434L91.3361 88.5459C91.4406 87.9659 91.4992 87.3741 91.4992 86.7735C91.4992 81.2598 87.0138 76.7735 81.4992 76.7735H65.3097C64.88 76.7735 64.4562 76.6631 64.0822 76.4522L50.8741 69.0235C48.2628 67.5518 45.295 66.7734 42.2921 66.7734H24.5694C23.5381 63.8643 20.7588 61.7744 17.5 61.7744H2.5C1.11914 61.7744 0 62.8936 0 64.2744V109.274C0 110.654 1.11914 111.774 2.5 111.774H17.5C20.6846 111.774 23.4151 109.773 24.4991 106.962C27.3292 107.314 30.6036 108.15 32.6612 109.385L45.7354 117.23C50.6886 120.202 56.3595 121.774 62.1368 121.774C66.715 121.774 71.1505 120.813 75.3214 118.918L121.983 98.3721C127.151 96.2755 129.702 90.0752 126.748 84.6104C124.575 80.5889 119.487 78.7998 114.905 80.4434ZM20 104.285C19.9942 105.658 18.8741 106.774 17.5 106.774H5.00001V66.7744H17.5C18.878 66.7744 20 67.8955 20 69.2744V104.285ZM120.083 93.7481C120.057 93.7579 120.031 93.7696 120.004 93.7803C120.004 93.7803 73.2736 114.357 73.2648 114.36C69.7443 115.962 66.0001 116.774 62.1368 116.774C57.2657 116.774 52.4845 115.449 48.3087 112.942L35.2335 105.098C32.4346 103.419 28.4268 102.396 25 101.985V71.7744H42.2921C44.4366 71.7744 46.5558 72.3291 48.422 73.3809L61.63 80.8096C62.7491 81.4405 64.0226 81.7745 65.3097 81.7745H81.4992C84.256 81.7745 86.4992 84.0166 86.4992 86.7745C86.4992 89.5215 84.255 91.7745 81.4992 91.7745H56.0851C54.7042 91.7745 53.5851 92.8936 53.5851 94.2745C53.5851 95.6544 54.7042 96.7735 56.0851 96.7735H81.4992C83.1388 96.7735 84.7531 96.3663 86.1857 95.6026C86.1857 95.6026 116.572 85.1573 116.583 85.1534C118.823 84.3448 121.357 85.1495 122.35 86.9874C123.839 89.7422 122.608 92.7374 120.083 93.7481Z" fill="#B81DDA"/>
<path d="M72.8117 66.8888C73.2824 67.296 73.8654 67.4991 74.4494 67.4991C75.0334 67.4991 75.6174 67.296 76.0871 66.8888C96.4846 49.211 109.102 40.2647 109.102 26.3623C109.102 15.3643 101.316 6.25 90.3772 6.25C83.1936 6.25 77.6926 10.3906 74.1496 16.6045C70.6144 10.4043 65.1193 6.25 57.925 6.25C49.5509 6.25 42.5499 11.6768 40.089 20.0742C39.7003 21.3994 40.4601 22.7881 41.7853 23.1768C43.1105 23.5655 44.4991 22.8057 44.8868 21.4805C46.7081 15.2656 51.8253 11.25 57.925 11.25C65.0568 11.25 70.0597 17.583 71.7404 23.4795C72.0402 24.5625 73.0266 25.3125 74.1496 25.3125C75.2736 25.3125 76.259 24.5625 76.5588 23.4795C76.593 23.3575 80.0656 11.25 90.3772 11.25C98.2014 11.25 104.102 17.7461 104.102 26.3623C104.102 37.4835 93.2307 45.5011 74.4474 61.6964C63.0031 51.8683 53.9123 44.9503 48.7453 38.1827C47.9074 37.085 46.339 36.8741 45.2413 37.712C44.1437 38.5499 43.9337 40.1182 44.7706 41.2169C50.5949 48.8448 60.4269 56.1534 72.8117 66.8888Z" fill="#B81DDA"/>
<path d="M42.25 28.2744C40.8701 28.2744 39.75 29.3945 39.75 30.7744C39.75 32.1543 40.8701 33.2744 42.25 33.2744C43.6299 33.2744 44.75 32.1543 44.75 30.7744C44.75 29.3945 43.6299 28.2744 42.25 28.2744Z" fill="#B81DDA"/>
</g>
<defs>
<clipPath id="clip0_2031_347">
<rect width="128" height="128" fill="white"/>
</clipPath>
</defs>
</svg>
