<svg width="157" height="48" viewBox="0 0 157 48" fill="none" xmlns="http://www.w3.org/2000/svg">
<path fill-rule="evenodd" clip-rule="evenodd" d="M24.3154 48C35.8434 48 45.4978 40.0816 48 29.4546H38.1793C35.9832 34.8879 30.6035 38.7272 24.3153 38.7272C22.9775 38.7272 21.6807 38.5534 20.447 38.2275V47.6979C21.7068 47.8967 22.9988 48 24.3154 48ZM38.1793 18.5455H48C45.4978 7.91847 35.8435 0 24.3154 0C10.8864 0 0 10.7452 0 24C0 31.704 3.6776 38.5602 9.39454 42.9515V23.4546H9.4046C9.69529 15.5736 16.2598 9.27271 24.3153 9.27271C30.6035 9.27271 35.9832 13.1121 38.1793 18.5455ZM29.289 15.2727C29.289 16.1765 30.0312 16.9091 30.9468 16.9091C31.8624 16.9091 32.6047 16.1765 32.6047 15.2727C32.6047 14.369 31.8624 13.6364 30.9468 13.6364C30.0312 13.6364 29.289 14.369 29.289 15.2727ZM29.5979 24C29.5979 27.0124 27.1237 29.4545 24.0716 29.4545C21.0196 29.4545 18.5454 27.0124 18.5454 24C18.5454 20.9875 21.0196 18.5454 24.0716 18.5454C27.1237 18.5454 29.5979 20.9875 29.5979 24Z" fill="url(#paint0_linear_2031_46)"/>
<path d="M64.48 26.18C65.1467 25.4867 65.48 24.5733 65.48 23.44C65.48 22.3067 65.1467 21.4133 64.48 20.76C63.8267 20.1067 63.04 19.78 62.12 19.78C61.2133 19.78 60.4267 20.1133 59.76 20.78C59.1067 21.4467 58.78 22.3467 58.78 23.48C58.78 24.6133 59.1067 25.52 59.76 26.2C60.4267 26.8667 61.2133 27.2 62.12 27.2C63.0267 27.2 63.8133 26.86 64.48 26.18ZM62.62 17.8C64.1 17.8 65.3333 18.3267 66.32 19.38C67.3067 20.42 67.8 21.78 67.8 23.46C67.8 25.1267 67.3 26.5 66.3 27.58C65.3133 28.6467 64.0867 29.18 62.62 29.18C61.7533 29.18 60.9933 28.98 60.34 28.58C59.6867 28.1667 59.1667 27.62 58.78 26.94V34.24H56.5V17.98H58.78V19.94C59.1533 19.3 59.6667 18.7867 60.32 18.4C60.9867 18 61.7533 17.8 62.62 17.8ZM72.3347 17.98V19.9C73.0414 18.5 74.1414 17.8 75.6347 17.8V20.16H75.0547C74.1614 20.16 73.4814 20.3867 73.0147 20.84C72.5614 21.2933 72.3347 22.08 72.3347 23.2V29H70.0547V17.98H72.3347ZM82.3705 29.18C80.7705 29.18 79.4705 28.66 78.4705 27.62C77.4705 26.58 76.9705 25.2 76.9705 23.48C76.9705 21.76 77.4771 20.3867 78.4905 19.36C79.5038 18.32 80.8105 17.8 82.4105 17.8C84.0238 17.8 85.3305 18.3 86.3305 19.3C87.3305 20.2867 87.8305 21.58 87.8305 23.18C87.8305 23.5667 87.8038 23.9267 87.7505 24.26H79.3105C79.3638 25.18 79.6705 25.9133 80.2305 26.46C80.8038 26.9933 81.5171 27.26 82.3705 27.26C83.6105 27.26 84.4838 26.7467 84.9905 25.72H87.4505C87.1171 26.7333 86.5105 27.5667 85.6305 28.22C84.7505 28.86 83.6638 29.18 82.3705 29.18ZM85.4505 22.7C85.4371 21.7933 85.1371 21.0733 84.5505 20.54C83.9638 19.9933 83.2505 19.72 82.4105 19.72C81.5705 19.72 80.8638 19.9933 80.2905 20.54C79.7305 21.0733 79.4105 21.7933 79.3305 22.7H85.4505ZM89.5742 21.14C89.5742 20.2067 89.9676 19.42 90.7542 18.78C91.5409 18.1267 92.5742 17.8 93.8542 17.8C95.1342 17.8 96.1476 18.12 96.8942 18.76C97.6542 19.3867 98.0609 20.2467 98.1142 21.34H95.7742C95.7342 20.7933 95.5409 20.3667 95.1942 20.06C94.8609 19.7533 94.3876 19.6 93.7742 19.6C93.1609 19.6 92.6809 19.74 92.3342 20.02C91.9876 20.2867 91.8142 20.6467 91.8142 21.1C91.8142 21.54 92.0342 21.8867 92.4742 22.14C92.9142 22.3933 93.4476 22.58 94.0742 22.7C94.7142 22.82 95.3476 22.9667 95.9742 23.14C96.6142 23.3133 97.1542 23.6333 97.5942 24.1C98.0342 24.5533 98.2542 25.1667 98.2542 25.94C98.2542 26.9 97.8476 27.68 97.0342 28.28C96.2342 28.88 95.2009 29.18 93.9342 29.18C92.6676 29.18 91.6409 28.8733 90.8542 28.26C90.0676 27.6467 89.6342 26.7733 89.5542 25.64H91.9142C91.9542 26.1867 92.1542 26.6133 92.5142 26.92C92.8742 27.2267 93.3609 27.38 93.9742 27.38C94.6009 27.38 95.0942 27.2467 95.4542 26.98C95.8276 26.7 96.0142 26.3333 96.0142 25.88C96.0142 25.4267 95.7942 25.0733 95.3542 24.82C94.9142 24.5667 94.3742 24.38 93.7342 24.26C93.1076 24.1267 92.4742 23.98 91.8342 23.82C91.2076 23.6467 90.6742 23.34 90.2342 22.9C89.7942 22.46 89.5742 21.8733 89.5742 21.14ZM100.258 21.14C100.258 20.2067 100.651 19.42 101.438 18.78C102.224 18.1267 103.258 17.8 104.538 17.8C105.818 17.8 106.831 18.12 107.578 18.76C108.338 19.3867 108.744 20.2467 108.798 21.34H106.458C106.418 20.7933 106.224 20.3667 105.878 20.06C105.544 19.7533 105.071 19.6 104.458 19.6C103.844 19.6 103.364 19.74 103.018 20.02C102.671 20.2867 102.498 20.6467 102.498 21.1C102.498 21.54 102.718 21.8867 103.158 22.14C103.598 22.3933 104.131 22.58 104.758 22.7C105.398 22.82 106.031 22.9667 106.658 23.14C107.298 23.3133 107.838 23.6333 108.278 24.1C108.718 24.5533 108.938 25.1667 108.938 25.94C108.938 26.9 108.531 27.68 107.718 28.28C106.918 28.88 105.884 29.18 104.618 29.18C103.351 29.18 102.324 28.8733 101.538 28.26C100.751 27.6467 100.318 26.7733 100.238 25.64H102.598C102.638 26.1867 102.838 26.6133 103.198 26.92C103.558 27.2267 104.044 27.38 104.658 27.38C105.284 27.38 105.778 27.2467 106.138 26.98C106.511 26.7 106.698 26.3333 106.698 25.88C106.698 25.4267 106.478 25.0733 106.038 24.82C105.598 24.5667 105.058 24.38 104.418 24.26C103.791 24.1267 103.158 23.98 102.518 23.82C101.891 23.6467 101.358 23.34 100.918 22.9C100.478 22.46 100.258 21.8733 100.258 21.14ZM114.041 15.06C114.041 15.4733 113.901 15.82 113.621 16.1C113.341 16.38 112.995 16.52 112.581 16.52C112.181 16.52 111.841 16.38 111.561 16.1C111.281 15.82 111.141 15.4733 111.141 15.06C111.141 14.6467 111.281 14.3 111.561 14.02C111.841 13.74 112.181 13.6 112.581 13.6C112.995 13.6 113.341 13.74 113.621 14.02C113.901 14.3 114.041 14.6467 114.041 15.06ZM111.441 29V17.98H113.721V29H111.441ZM123.875 26.26C124.542 25.5933 124.875 24.6667 124.875 23.48C124.875 22.2933 124.548 21.3733 123.895 20.72C123.255 20.0533 122.475 19.72 121.555 19.72C120.635 19.72 119.862 20.0533 119.235 20.72C118.608 21.3733 118.295 22.3 118.295 23.5C118.295 24.6867 118.602 25.6133 119.215 26.28C119.828 26.9333 120.588 27.26 121.495 27.26C122.415 27.26 123.208 26.9267 123.875 26.26ZM121.495 29.18C119.895 29.18 118.575 28.66 117.535 27.62C116.495 26.5667 115.975 25.1933 115.975 23.5C115.975 21.7933 116.508 20.42 117.575 19.38C118.655 18.3267 119.995 17.8 121.595 17.8C123.195 17.8 124.528 18.3267 125.595 19.38C126.675 20.42 127.215 21.7867 127.215 23.48C127.215 25.1733 126.662 26.5467 125.555 27.6C124.462 28.6533 123.108 29.18 121.495 29.18ZM131.749 17.98V19.72C132.482 18.44 133.655 17.8 135.269 17.8C136.509 17.8 137.529 18.2133 138.329 19.04C139.142 19.8667 139.549 21.02 139.549 22.5V29H137.289V22.84C137.289 21.8533 137.042 21.1 136.549 20.58C136.055 20.0467 135.382 19.78 134.529 19.78C133.675 19.78 132.995 20.0467 132.489 20.58C131.995 21.1 131.749 21.8533 131.749 22.84V29H129.469V17.98H131.749ZM148.797 29.12C146.81 29.12 145.13 28.4533 143.757 27.12C142.384 25.7867 141.697 24.0933 141.697 22.04C141.697 19.9733 142.384 18.2733 143.757 16.94C145.13 15.5933 146.81 14.92 148.797 14.92C150.277 14.92 151.59 15.2867 152.737 16.02C153.897 16.74 154.737 17.7667 155.257 19.1H152.517C151.77 17.7 150.53 17 148.797 17C147.397 17 146.25 17.46 145.357 18.38C144.477 19.3 144.037 20.52 144.037 22.04C144.037 23.5467 144.477 24.76 145.357 25.68C146.25 26.6 147.397 27.06 148.797 27.06C150.53 27.06 151.77 26.36 152.517 24.96H155.257C154.737 26.2933 153.897 27.32 152.737 28.04C151.59 28.76 150.277 29.12 148.797 29.12Z" fill="white"/>
<defs>
<linearGradient id="paint0_linear_2031_46" x1="6" y1="6.8" x2="34.8" y2="48" gradientUnits="userSpaceOnUse">
<stop offset="0.26" stop-color="#C343FF"/>
<stop offset="0.615" stop-color="#EFCDFF"/>
<stop offset="1" stop-color="#E7CA34"/>
</linearGradient>
</defs>
</svg>
