<svg width="26" height="26" viewBox="0 0 26 26" fill="none" xmlns="http://www.w3.org/2000/svg">
<path d="M20.2691 21.1251C19.37 22.4684 18.4166 23.7792 16.965 23.8009C15.5133 23.8334 15.0475 22.9451 13.4008 22.9451C11.7433 22.9451 11.2341 23.7792 9.85829 23.8334C8.43912 23.8876 7.36662 22.4034 6.45662 21.0926C4.60412 18.4167 3.18496 13.4876 5.09162 10.1726C6.03412 8.52592 7.72412 7.48592 9.55496 7.45341C10.9416 7.43175 12.2633 8.39592 13.1191 8.39592C13.9641 8.39592 15.5675 7.23675 17.2466 7.41008C17.9508 7.44258 19.9225 7.69175 21.19 9.55508C21.0925 9.62008 18.8391 10.9417 18.8608 13.6826C18.8933 16.9542 21.7316 18.0484 21.7641 18.0592C21.7316 18.1351 21.3091 19.6192 20.2691 21.1251ZM14.0833 3.79175C14.8741 2.89258 16.185 2.21008 17.2683 2.16675C17.4091 3.43425 16.9 4.71258 16.1416 5.62258C15.3941 6.54342 14.1591 7.25842 12.9458 7.16091C12.7833 5.91508 13.39 4.61508 14.0833 3.79175Z" fill="#B81DDA"/>
</svg>
