<svg width="370" height="338" viewBox="0 0 378 338" fill="none" xmlns="http://www.w3.org/2000/svg">
<rect x="4" y="18" width="370" height="320" rx="15" fill="#F9EEFC"/>
<circle cx="54" cy="18" r="18" fill="#B81DDA"/>
<path d="M49.4614 22.184C51.0134 20.888 52.2294 19.824 53.1094 18.992C54.0054 18.16 54.7494 17.296 55.3414 16.4C55.9494 15.504 56.2534 14.64 56.2534 13.808C56.2534 13.008 56.0614 12.392 55.6774 11.96C55.3094 11.512 54.7254 11.288 53.9254 11.288C53.1254 11.288 52.5174 11.552 52.1014 12.08C51.6854 12.608 51.4614 13.344 51.4294 14.288H48.1654C48.2294 12.368 48.7974 10.912 49.8694 9.92C50.9574 8.928 52.3334 8.432 53.9974 8.432C55.2134 8.432 56.2454 8.656 57.0934 9.104C57.9414 9.552 58.5734 10.168 58.9894 10.952C59.4214 11.72 59.6374 12.6 59.6374 13.592C59.6374 14.792 59.3014 15.944 58.6294 17.048C57.9734 18.152 57.2134 19.12 56.3494 19.952C55.5014 20.784 54.3734 21.792 52.9654 22.976H60.0454V25.76H48.1894V23.264L49.4614 22.184Z" fill="white"/>
<g filter="url(#filter0_d_2031_103)">
<rect x="30" y="73" width="318" height="210" rx="15" fill="white"/>
</g>
<rect x="58" y="103" width="262" height="40" rx="7" fill="url(#paint0_linear_2031_103)"/>
<rect x="57.5" y="102.5" width="263" height="41" rx="7.5" stroke="#C1C7D0" stroke-opacity="0.5"/>
<path d="M288 103H313C316.866 103 320 106.134 320 110V136C320 139.866 316.866 143 313 143H288V103Z" fill="#B81DDA"/>
<path d="M307.96 128.475L304.7 131.735C304.315 132.12 303.685 132.12 303.3 131.735L300.04 128.475" stroke="white" stroke-width="1.5" stroke-miterlimit="10" stroke-linecap="round" stroke-linejoin="round"/>
<path d="M307.96 117.525L304.7 114.265C304.315 113.88 303.685 113.88 303.3 114.265L300.04 117.525" stroke="white" stroke-width="1.5" stroke-miterlimit="10" stroke-linecap="round" stroke-linejoin="round"/>
<path d="M74.592 123.416C74.592 122.328 74.8427 121.352 75.344 120.488C75.856 119.624 76.544 118.952 77.408 118.472C78.2827 117.981 79.2373 117.736 80.272 117.736C81.456 117.736 82.5067 118.029 83.424 118.616C84.352 119.192 85.024 120.013 85.44 121.08H83.248C82.96 120.525 82.56 120.109 82.048 119.832C81.536 119.544 80.944 119.4 80.272 119.4C79.536 119.4 78.88 119.565 78.304 119.896C77.728 120.227 77.2747 120.696 76.944 121.304C76.624 121.912 76.464 122.616 76.464 123.416C76.464 124.216 76.624 124.925 76.944 125.544C77.2747 126.152 77.728 126.621 78.304 126.952C78.88 127.283 79.536 127.448 80.272 127.448C80.944 127.448 81.536 127.309 82.048 127.032C82.56 126.744 82.96 126.323 83.248 125.768H85.44C85.024 126.835 84.352 127.656 83.424 128.232C82.5067 128.808 81.456 129.096 80.272 129.096C79.2267 129.096 78.272 128.856 77.408 128.376C76.544 127.885 75.856 127.208 75.344 126.344C74.8427 125.48 74.592 124.504 74.592 123.416ZM86.967 124.552C86.967 123.667 87.1483 122.883 87.511 122.2C87.8843 121.517 88.3857 120.989 89.015 120.616C89.655 120.232 90.359 120.04 91.127 120.04C91.8203 120.04 92.423 120.179 92.935 120.456C93.4577 120.723 93.8737 121.059 94.183 121.464V120.184H96.023V129H94.183V127.688C93.8737 128.104 93.4523 128.451 92.919 128.728C92.3857 129.005 91.7777 129.144 91.095 129.144C90.3377 129.144 89.6443 128.952 89.015 128.568C88.3857 128.173 87.8843 127.629 87.511 126.936C87.1483 126.232 86.967 125.437 86.967 124.552ZM94.183 124.584C94.183 123.976 94.055 123.448 93.799 123C93.5537 122.552 93.2283 122.211 92.823 121.976C92.4177 121.741 91.9803 121.624 91.511 121.624C91.0417 121.624 90.6043 121.741 90.199 121.976C89.7937 122.2 89.463 122.536 89.207 122.984C88.9617 123.421 88.839 123.944 88.839 124.552C88.839 125.16 88.9617 125.693 89.207 126.152C89.463 126.611 89.7937 126.963 90.199 127.208C90.615 127.443 91.0523 127.56 91.511 127.56C91.9803 127.56 92.4177 127.443 92.823 127.208C93.2283 126.973 93.5537 126.632 93.799 126.184C94.055 125.725 94.183 125.192 94.183 124.584ZM109.091 120.04C109.784 120.04 110.403 120.184 110.947 120.472C111.501 120.76 111.933 121.187 112.243 121.752C112.563 122.317 112.723 123 112.723 123.8V129H110.915V124.072C110.915 123.283 110.717 122.68 110.323 122.264C109.928 121.837 109.389 121.624 108.707 121.624C108.024 121.624 107.48 121.837 107.075 122.264C106.68 122.68 106.483 123.283 106.483 124.072V129H104.675V124.072C104.675 123.283 104.477 122.68 104.083 122.264C103.688 121.837 103.149 121.624 102.467 121.624C101.784 121.624 101.24 121.837 100.835 122.264C100.44 122.68 100.243 123.283 100.243 124.072V129H98.4188V120.184H100.243V121.192C100.541 120.829 100.92 120.547 101.379 120.344C101.837 120.141 102.328 120.04 102.851 120.04C103.555 120.04 104.184 120.189 104.739 120.488C105.293 120.787 105.72 121.219 106.019 121.784C106.285 121.251 106.701 120.829 107.267 120.52C107.832 120.2 108.44 120.04 109.091 120.04ZM123.124 124.344C123.124 124.653 123.102 124.941 123.06 125.208H116.308C116.361 125.944 116.622 126.531 117.092 126.968C117.561 127.395 118.142 127.608 118.836 127.608C119.817 127.608 120.51 127.197 120.916 126.376H122.884C122.617 127.187 122.132 127.853 121.428 128.376C120.734 128.888 119.87 129.144 118.836 129.144C117.993 129.144 117.236 128.957 116.564 128.584C115.902 128.2 115.38 127.667 114.996 126.984C114.622 126.291 114.436 125.491 114.436 124.584C114.436 123.677 114.617 122.883 114.98 122.2C115.353 121.507 115.87 120.973 116.532 120.6C117.204 120.227 117.972 120.04 118.836 120.04C119.668 120.04 120.409 120.221 121.06 120.584C121.71 120.947 122.217 121.453 122.58 122.104C122.942 122.755 123.124 123.501 123.124 124.344ZM121.22 123.896C121.209 123.181 120.969 122.616 120.5 122.2C120.041 121.784 119.46 121.576 118.756 121.576C118.116 121.576 117.566 121.784 117.108 122.2C116.66 122.616 116.398 123.181 116.324 123.896H121.22ZM126.743 121.72C127.009 121.187 127.361 120.776 127.799 120.488C128.247 120.189 128.775 120.04 129.383 120.04V121.928H128.919C128.204 121.928 127.66 122.109 127.287 122.472C126.924 122.835 126.743 123.464 126.743 124.36V129H124.919V120.184H126.743V121.72ZM130.451 124.552C130.451 123.667 130.633 122.883 130.995 122.2C131.369 121.517 131.87 120.989 132.499 120.616C133.139 120.232 133.843 120.04 134.611 120.04C135.305 120.04 135.907 120.179 136.419 120.456C136.942 120.723 137.358 121.059 137.667 121.464V120.184H139.507V129H137.667V127.688C137.358 128.104 136.937 128.451 136.403 128.728C135.87 129.005 135.262 129.144 134.579 129.144C133.822 129.144 133.129 128.952 132.499 128.568C131.87 128.173 131.369 127.629 130.995 126.936C130.633 126.232 130.451 125.437 130.451 124.552ZM137.667 124.584C137.667 123.976 137.539 123.448 137.283 123C137.038 122.552 136.713 122.211 136.307 121.976C135.902 121.741 135.465 121.624 134.995 121.624C134.526 121.624 134.089 121.741 133.683 121.976C133.278 122.2 132.947 122.536 132.691 122.984C132.446 123.421 132.323 123.944 132.323 124.552C132.323 125.16 132.446 125.693 132.691 126.152C132.947 126.611 133.278 126.963 133.683 127.208C134.099 127.443 134.537 127.56 134.995 127.56C135.465 127.56 135.902 127.443 136.307 127.208C136.713 126.973 137.038 126.632 137.283 126.184C137.539 125.725 137.667 125.192 137.667 124.584ZM150.364 129.112C149.617 129.112 148.945 128.984 148.348 128.728C147.751 128.461 147.281 128.088 146.94 127.608C146.599 127.128 146.428 126.568 146.428 125.928H148.38C148.423 126.429 148.609 126.84 148.94 127.16C149.281 127.48 149.756 127.64 150.364 127.64C150.993 127.64 151.484 127.485 151.836 127.176C152.188 126.856 152.364 126.445 152.364 125.944C152.364 125.571 152.252 125.267 152.028 125.032C151.815 124.797 151.543 124.616 151.212 124.488C150.892 124.36 150.444 124.221 149.868 124.072C149.143 123.88 148.551 123.688 148.092 123.496C147.644 123.293 147.26 122.984 146.94 122.568C146.62 122.152 146.46 121.597 146.46 120.904C146.46 120.264 146.62 119.704 146.94 119.224C147.26 118.744 147.708 118.376 148.284 118.12C148.86 117.864 149.527 117.736 150.284 117.736C151.361 117.736 152.241 118.008 152.924 118.552C153.617 119.085 154.001 119.821 154.076 120.76H152.06C152.028 120.323 151.836 119.96 151.484 119.672C151.143 119.373 150.679 119.224 150.092 119.224C149.559 119.224 149.127 119.363 148.796 119.64C148.476 119.907 148.316 120.307 148.316 120.84C148.316 121.181 148.417 121.464 148.62 121.688C148.833 121.901 149.1 122.072 149.42 122.2C149.74 122.328 150.177 122.467 150.732 122.616C151.468 122.819 152.065 123.021 152.524 123.224C152.993 123.427 153.388 123.741 153.708 124.168C154.039 124.584 154.204 125.144 154.204 125.848C154.204 126.413 154.049 126.947 153.74 127.448C153.441 127.949 152.999 128.355 152.412 128.664C151.836 128.963 151.153 129.112 150.364 129.112ZM164.436 124.344C164.436 124.653 164.415 124.941 164.372 125.208H157.62C157.674 125.944 157.935 126.531 158.404 126.968C158.874 127.395 159.455 127.608 160.148 127.608C161.13 127.608 161.823 127.197 162.228 126.376H164.196C163.93 127.187 163.444 127.853 162.74 128.376C162.047 128.888 161.183 129.144 160.148 129.144C159.306 129.144 158.548 128.957 157.876 128.584C157.215 128.2 156.692 127.667 156.308 126.984C155.935 126.291 155.748 125.491 155.748 124.584C155.748 123.677 155.93 122.883 156.292 122.2C156.666 121.507 157.183 120.973 157.844 120.6C158.516 120.227 159.284 120.04 160.148 120.04C160.98 120.04 161.722 120.221 162.372 120.584C163.023 120.947 163.53 121.453 163.892 122.104C164.255 122.755 164.436 123.501 164.436 124.344ZM162.532 123.896C162.522 123.181 162.282 122.616 161.812 122.2C161.354 121.784 160.772 121.576 160.068 121.576C159.428 121.576 158.879 121.784 158.42 122.2C157.972 122.616 157.711 123.181 157.636 123.896H162.532ZM168.359 121.672V126.552C168.359 126.883 168.434 127.123 168.583 127.272C168.743 127.411 169.01 127.48 169.383 127.48H170.503V129H169.063C168.242 129 167.613 128.808 167.175 128.424C166.738 128.04 166.519 127.416 166.519 126.552V121.672H165.479V120.184H166.519V117.992H168.359V120.184H170.503V121.672H168.359ZM174.312 121.672V126.552C174.312 126.883 174.387 127.123 174.536 127.272C174.696 127.411 174.963 127.48 175.336 127.48H176.456V129H175.016C174.195 129 173.566 128.808 173.128 128.424C172.691 128.04 172.472 127.416 172.472 126.552V121.672H171.432V120.184H172.472V117.992H174.312V120.184H176.456V121.672H174.312ZM179.066 119.016C178.735 119.016 178.458 118.904 178.234 118.68C178.01 118.456 177.898 118.179 177.898 117.848C177.898 117.517 178.01 117.24 178.234 117.016C178.458 116.792 178.735 116.68 179.066 116.68C179.386 116.68 179.658 116.792 179.882 117.016C180.106 117.24 180.218 117.517 180.218 117.848C180.218 118.179 180.106 118.456 179.882 118.68C179.658 118.904 179.386 119.016 179.066 119.016ZM179.962 120.184V129H178.138V120.184H179.962ZM186.804 120.04C187.498 120.04 188.116 120.184 188.66 120.472C189.215 120.76 189.647 121.187 189.956 121.752C190.266 122.317 190.42 123 190.42 123.8V129H188.612V124.072C188.612 123.283 188.415 122.68 188.02 122.264C187.626 121.837 187.087 121.624 186.404 121.624C185.722 121.624 185.178 121.837 184.772 122.264C184.378 122.68 184.18 123.283 184.18 124.072V129H182.356V120.184H184.18V121.192C184.479 120.829 184.858 120.547 185.316 120.344C185.786 120.141 186.282 120.04 186.804 120.04ZM196.299 120.04C196.982 120.04 197.584 120.179 198.107 120.456C198.64 120.723 199.056 121.059 199.355 121.464V120.184H201.195V129.144C201.195 129.955 201.024 130.675 200.683 131.304C200.342 131.944 199.846 132.445 199.195 132.808C198.555 133.171 197.787 133.352 196.891 133.352C195.696 133.352 194.704 133.069 193.915 132.504C193.126 131.949 192.678 131.192 192.571 130.232H194.379C194.518 130.691 194.811 131.059 195.259 131.336C195.718 131.624 196.262 131.768 196.891 131.768C197.627 131.768 198.219 131.544 198.667 131.096C199.126 130.648 199.355 129.997 199.355 129.144V127.672C199.046 128.088 198.624 128.44 198.091 128.728C197.568 129.005 196.971 129.144 196.299 129.144C195.531 129.144 194.827 128.952 194.187 128.568C193.558 128.173 193.056 127.629 192.683 126.936C192.32 126.232 192.139 125.437 192.139 124.552C192.139 123.667 192.32 122.883 192.683 122.2C193.056 121.517 193.558 120.989 194.187 120.616C194.827 120.232 195.531 120.04 196.299 120.04ZM199.355 124.584C199.355 123.976 199.227 123.448 198.971 123C198.726 122.552 198.4 122.211 197.995 121.976C197.59 121.741 197.152 121.624 196.683 121.624C196.214 121.624 195.776 121.741 195.371 121.976C194.966 122.2 194.635 122.536 194.379 122.984C194.134 123.421 194.011 123.944 194.011 124.552C194.011 125.16 194.134 125.693 194.379 126.152C194.635 126.611 194.966 126.963 195.371 127.208C195.787 127.443 196.224 127.56 196.683 127.56C197.152 127.56 197.59 127.443 197.995 127.208C198.4 126.973 198.726 126.632 198.971 126.184C199.227 125.725 199.355 125.192 199.355 124.584ZM206.759 129.144C206.076 129.144 205.463 129.021 204.919 128.776C204.375 128.52 203.943 128.179 203.623 127.752C203.303 127.315 203.132 126.829 203.111 126.296H204.999C205.031 126.701 205.207 127.037 205.527 127.304C205.857 127.571 206.268 127.704 206.759 127.704C207.271 127.704 207.665 127.603 207.943 127.4C208.231 127.187 208.375 126.904 208.375 126.552C208.375 126.232 208.215 125.987 207.895 125.816C207.575 125.645 207.079 125.475 206.407 125.304C205.756 125.123 205.223 124.952 204.807 124.792C204.401 124.621 204.049 124.365 203.751 124.024C203.452 123.672 203.303 123.219 203.303 122.664C203.303 122.184 203.436 121.747 203.703 121.352C203.969 120.947 204.353 120.627 204.855 120.392C205.367 120.157 205.964 120.04 206.647 120.04C207.649 120.04 208.455 120.296 209.063 120.808C209.681 121.309 210.012 121.997 210.055 122.872H208.231C208.199 122.445 208.039 122.109 207.751 121.864C207.463 121.608 207.073 121.48 206.583 121.48C206.103 121.48 205.735 121.581 205.479 121.784C205.223 121.976 205.095 122.237 205.095 122.568C205.095 122.803 205.18 123 205.351 123.16C205.521 123.32 205.735 123.448 205.991 123.544C206.247 123.629 206.609 123.736 207.079 123.864C207.719 124.035 208.241 124.205 208.647 124.376C209.052 124.547 209.399 124.808 209.687 125.16C209.975 125.501 210.119 125.949 210.119 126.504C210.119 127.005 209.985 127.459 209.719 127.864C209.452 128.259 209.063 128.573 208.551 128.808C208.049 129.032 207.452 129.144 206.759 129.144Z" fill="#262626"/>
<rect x="58" y="157" width="262" height="96" rx="7" fill="white"/>
<rect x="57.5" y="156.5" width="263" height="97" rx="7.5" stroke="#C1C7D0" stroke-opacity="0.5"/>
<path d="M58 205H320" stroke="#C1C7D0" stroke-opacity="0.5"/>
<path d="M81.744 175.88V177.304H77.024V180.68H80.704V182.088H77.024V187H75.2V175.88H81.744ZM82.8264 182.552C82.8264 181.667 83.0077 180.883 83.3704 180.2C83.7437 179.517 84.245 178.989 84.8744 178.616C85.5144 178.232 86.2184 178.04 86.9864 178.04C87.6797 178.04 88.2824 178.179 88.7944 178.456C89.317 178.723 89.733 179.059 90.0424 179.464V178.184H91.8824V187H90.0424V185.688C89.733 186.104 89.3117 186.451 88.7784 186.728C88.245 187.005 87.637 187.144 86.9544 187.144C86.197 187.144 85.5037 186.952 84.8744 186.568C84.245 186.173 83.7437 185.629 83.3704 184.936C83.0077 184.232 82.8264 183.437 82.8264 182.552ZM90.0424 182.584C90.0424 181.976 89.9144 181.448 89.6584 181C89.413 180.552 89.0877 180.211 88.6824 179.976C88.277 179.741 87.8397 179.624 87.3704 179.624C86.901 179.624 86.4637 179.741 86.0584 179.976C85.653 180.2 85.3224 180.536 85.0664 180.984C84.821 181.421 84.6984 181.944 84.6984 182.552C84.6984 183.16 84.821 183.693 85.0664 184.152C85.3224 184.611 85.653 184.963 86.0584 185.208C86.4744 185.443 86.9117 185.56 87.3704 185.56C87.8397 185.56 88.277 185.443 88.6824 185.208C89.0877 184.973 89.413 184.632 89.6584 184.184C89.9144 183.725 90.0424 183.192 90.0424 182.584ZM93.6701 182.584C93.6701 181.677 93.8515 180.883 94.2141 180.2C94.5875 179.507 95.0995 178.973 95.7501 178.6C96.4008 178.227 97.1475 178.04 97.9901 178.04C99.0568 178.04 99.9368 178.296 100.63 178.808C101.334 179.309 101.809 180.029 102.054 180.968H100.086C99.9261 180.531 99.6701 180.189 99.3181 179.944C98.9661 179.699 98.5235 179.576 97.9901 179.576C97.2435 179.576 96.6461 179.843 96.1981 180.376C95.7608 180.899 95.5421 181.635 95.5421 182.584C95.5421 183.533 95.7608 184.275 96.1981 184.808C96.6461 185.341 97.2435 185.608 97.9901 185.608C99.0461 185.608 99.7448 185.144 100.086 184.216H102.054C101.798 185.112 101.318 185.827 100.614 186.36C99.9101 186.883 99.0355 187.144 97.9901 187.144C97.1475 187.144 96.4008 186.957 95.7501 186.584C95.0995 186.2 94.5875 185.667 94.2141 184.984C93.8515 184.291 93.6701 183.491 93.6701 182.584ZM111.952 182.344C111.952 182.653 111.931 182.941 111.888 183.208H105.136C105.189 183.944 105.451 184.531 105.92 184.968C106.389 185.395 106.971 185.608 107.664 185.608C108.645 185.608 109.339 185.197 109.744 184.376H111.712C111.445 185.187 110.96 185.853 110.256 186.376C109.563 186.888 108.699 187.144 107.664 187.144C106.821 187.144 106.064 186.957 105.392 186.584C104.731 186.2 104.208 185.667 103.824 184.984C103.451 184.291 103.264 183.491 103.264 182.584C103.264 181.677 103.445 180.883 103.808 180.2C104.181 179.507 104.699 178.973 105.36 178.6C106.032 178.227 106.8 178.04 107.664 178.04C108.496 178.04 109.237 178.221 109.888 178.584C110.539 178.947 111.045 179.453 111.408 180.104C111.771 180.755 111.952 181.501 111.952 182.344ZM110.048 181.896C110.037 181.181 109.797 180.616 109.328 180.2C108.869 179.784 108.288 179.576 107.584 179.576C106.944 179.576 106.395 179.784 105.936 180.2C105.488 180.616 105.227 181.181 105.152 181.896H110.048ZM125.728 175.88V177.304H122.768V187H120.944V177.304H117.968V175.88H125.728ZM128.503 177.016C128.172 177.016 127.895 176.904 127.671 176.68C127.447 176.456 127.335 176.179 127.335 175.848C127.335 175.517 127.447 175.24 127.671 175.016C127.895 174.792 128.172 174.68 128.503 174.68C128.823 174.68 129.095 174.792 129.319 175.016C129.543 175.24 129.655 175.517 129.655 175.848C129.655 176.179 129.543 176.456 129.319 176.68C129.095 176.904 128.823 177.016 128.503 177.016ZM129.399 178.184V187H127.575V178.184H129.399ZM142.466 178.04C143.159 178.04 143.778 178.184 144.322 178.472C144.876 178.76 145.308 179.187 145.618 179.752C145.938 180.317 146.098 181 146.098 181.8V187H144.29V182.072C144.29 181.283 144.092 180.68 143.698 180.264C143.303 179.837 142.764 179.624 142.082 179.624C141.399 179.624 140.855 179.837 140.45 180.264C140.055 180.68 139.858 181.283 139.858 182.072V187H138.05V182.072C138.05 181.283 137.852 180.68 137.458 180.264C137.063 179.837 136.524 179.624 135.842 179.624C135.159 179.624 134.615 179.837 134.21 180.264C133.815 180.68 133.618 181.283 133.618 182.072V187H131.794V178.184H133.618V179.192C133.916 178.829 134.295 178.547 134.754 178.344C135.212 178.141 135.703 178.04 136.226 178.04C136.93 178.04 137.559 178.189 138.114 178.488C138.668 178.787 139.095 179.219 139.394 179.784C139.66 179.251 140.076 178.829 140.642 178.52C141.207 178.2 141.815 178.04 142.466 178.04ZM156.499 182.344C156.499 182.653 156.477 182.941 156.435 183.208H149.683C149.736 183.944 149.997 184.531 150.467 184.968C150.936 185.395 151.517 185.608 152.211 185.608C153.192 185.608 153.885 185.197 154.291 184.376H156.259C155.992 185.187 155.507 185.853 154.803 186.376C154.109 186.888 153.245 187.144 152.211 187.144C151.368 187.144 150.611 186.957 149.939 186.584C149.277 186.2 148.755 185.667 148.371 184.984C147.997 184.291 147.811 183.491 147.811 182.584C147.811 181.677 147.992 180.883 148.355 180.2C148.728 179.507 149.245 178.973 149.907 178.6C150.579 178.227 151.347 178.04 152.211 178.04C153.043 178.04 153.784 178.221 154.435 178.584C155.085 178.947 155.592 179.453 155.955 180.104C156.317 180.755 156.499 181.501 156.499 182.344ZM154.595 181.896C154.584 181.181 154.344 180.616 153.875 180.2C153.416 179.784 152.835 179.576 152.131 179.576C151.491 179.576 150.941 179.784 150.483 180.2C150.035 180.616 149.773 181.181 149.699 181.896H154.595ZM171.971 175.88V187H170.147V182.088H164.915V187H163.091V175.88H164.915V180.68H170.147V175.88H171.971ZM178.004 175.88C179.188 175.88 180.223 176.109 181.108 176.568C182.004 177.016 182.692 177.667 183.172 178.52C183.663 179.363 183.908 180.349 183.908 181.48C183.908 182.611 183.663 183.592 183.172 184.424C182.692 185.256 182.004 185.896 181.108 186.344C180.223 186.781 179.188 187 178.004 187H174.372V175.88H178.004ZM178.004 185.608C179.295 185.608 180.287 185.24 180.98 184.504C181.684 183.768 182.036 182.76 182.036 181.48C182.036 180.189 181.684 179.181 180.98 178.456C180.287 177.72 179.295 177.352 178.004 177.352H176.196V185.608H178.004ZM189.905 181.416C189.905 180.328 190.155 179.352 190.657 178.488C191.169 177.624 191.857 176.952 192.721 176.472C193.595 175.981 194.55 175.736 195.585 175.736C196.769 175.736 197.819 176.029 198.737 176.616C199.665 177.192 200.337 178.013 200.753 179.08H198.561C198.273 178.525 197.873 178.109 197.361 177.832C196.849 177.544 196.257 177.4 195.585 177.4C194.849 177.4 194.193 177.565 193.617 177.896C193.041 178.227 192.587 178.696 192.257 179.304C191.937 179.912 191.777 180.616 191.777 181.416C191.777 182.216 191.937 182.925 192.257 183.544C192.587 184.152 193.041 184.621 193.617 184.952C194.193 185.283 194.849 185.448 195.585 185.448C196.257 185.448 196.849 185.309 197.361 185.032C197.873 184.744 198.273 184.323 198.561 183.768H200.753C200.337 184.835 199.665 185.656 198.737 186.232C197.819 186.808 196.769 187.096 195.585 187.096C194.539 187.096 193.585 186.856 192.721 186.376C191.857 185.885 191.169 185.208 190.657 184.344C190.155 183.48 189.905 182.504 189.905 181.416ZM202.28 182.552C202.28 181.667 202.461 180.883 202.824 180.2C203.197 179.517 203.698 178.989 204.328 178.616C204.968 178.232 205.672 178.04 206.44 178.04C207.133 178.04 207.736 178.179 208.248 178.456C208.77 178.723 209.186 179.059 209.496 179.464V178.184H211.336V187H209.496V185.688C209.186 186.104 208.765 186.451 208.232 186.728C207.698 187.005 207.09 187.144 206.408 187.144C205.65 187.144 204.957 186.952 204.328 186.568C203.698 186.173 203.197 185.629 202.824 184.936C202.461 184.232 202.28 183.437 202.28 182.552ZM209.496 182.584C209.496 181.976 209.368 181.448 209.112 181C208.866 180.552 208.541 180.211 208.136 179.976C207.73 179.741 207.293 179.624 206.824 179.624C206.354 179.624 205.917 179.741 205.512 179.976C205.106 180.2 204.776 180.536 204.52 180.984C204.274 181.421 204.152 181.944 204.152 182.552C204.152 183.16 204.274 183.693 204.52 184.152C204.776 184.611 205.106 184.963 205.512 185.208C205.928 185.443 206.365 185.56 206.824 185.56C207.293 185.56 207.73 185.443 208.136 185.208C208.541 184.973 208.866 184.632 209.112 184.184C209.368 183.725 209.496 183.192 209.496 182.584ZM224.403 178.04C225.097 178.04 225.715 178.184 226.259 178.472C226.814 178.76 227.246 179.187 227.555 179.752C227.875 180.317 228.035 181 228.035 181.8V187H226.227V182.072C226.227 181.283 226.03 180.68 225.635 180.264C225.241 179.837 224.702 179.624 224.019 179.624C223.337 179.624 222.793 179.837 222.387 180.264C221.993 180.68 221.795 181.283 221.795 182.072V187H219.987V182.072C219.987 181.283 219.79 180.68 219.395 180.264C219.001 179.837 218.462 179.624 217.779 179.624C217.097 179.624 216.553 179.837 216.147 180.264C215.753 180.68 215.555 181.283 215.555 182.072V187H213.731V178.184H215.555V179.192C215.854 178.829 216.233 178.547 216.691 178.344C217.15 178.141 217.641 178.04 218.163 178.04C218.867 178.04 219.497 178.189 220.051 178.488C220.606 178.787 221.033 179.219 221.331 179.784C221.598 179.251 222.014 178.829 222.579 178.52C223.145 178.2 223.753 178.04 224.403 178.04ZM238.436 182.344C238.436 182.653 238.415 182.941 238.372 183.208H231.62C231.674 183.944 231.935 184.531 232.404 184.968C232.874 185.395 233.455 185.608 234.148 185.608C235.13 185.608 235.823 185.197 236.228 184.376H238.196C237.93 185.187 237.444 185.853 236.74 186.376C236.047 186.888 235.183 187.144 234.148 187.144C233.306 187.144 232.548 186.957 231.876 186.584C231.215 186.2 230.692 185.667 230.308 184.984C229.935 184.291 229.748 183.491 229.748 182.584C229.748 181.677 229.93 180.883 230.292 180.2C230.666 179.507 231.183 178.973 231.844 178.6C232.516 178.227 233.284 178.04 234.148 178.04C234.98 178.04 235.722 178.221 236.372 178.584C237.023 178.947 237.53 179.453 237.892 180.104C238.255 180.755 238.436 181.501 238.436 182.344ZM236.532 181.896C236.522 181.181 236.282 180.616 235.812 180.2C235.354 179.784 234.772 179.576 234.068 179.576C233.428 179.576 232.879 179.784 232.42 180.2C231.972 180.616 231.711 181.181 231.636 181.896H236.532ZM242.055 179.72C242.322 179.187 242.674 178.776 243.111 178.488C243.559 178.189 244.087 178.04 244.695 178.04V179.928H244.231C243.517 179.928 242.973 180.109 242.599 180.472C242.237 180.835 242.055 181.464 242.055 182.36V187H240.231V178.184H242.055V179.72ZM245.764 182.552C245.764 181.667 245.945 180.883 246.308 180.2C246.681 179.517 247.183 178.989 247.812 178.616C248.452 178.232 249.156 178.04 249.924 178.04C250.617 178.04 251.22 178.179 251.732 178.456C252.255 178.723 252.671 179.059 252.98 179.464V178.184H254.82V187H252.98V185.688C252.671 186.104 252.249 186.451 251.716 186.728C251.183 187.005 250.575 187.144 249.892 187.144C249.135 187.144 248.441 186.952 247.812 186.568C247.183 186.173 246.681 185.629 246.308 184.936C245.945 184.232 245.764 183.437 245.764 182.552ZM252.98 182.584C252.98 181.976 252.852 181.448 252.596 181C252.351 180.552 252.025 180.211 251.62 179.976C251.215 179.741 250.777 179.624 250.308 179.624C249.839 179.624 249.401 179.741 248.996 179.976C248.591 180.2 248.26 180.536 248.004 180.984C247.759 181.421 247.636 181.944 247.636 182.552C247.636 183.16 247.759 183.693 248.004 184.152C248.26 184.611 248.591 184.963 248.996 185.208C249.412 185.443 249.849 185.56 250.308 185.56C250.777 185.56 251.215 185.443 251.62 185.208C252.025 184.973 252.351 184.632 252.596 184.184C252.852 183.725 252.98 183.192 252.98 182.584Z" fill="#262626"/>
<path d="M82.976 227.192C82.976 227.757 82.8427 228.291 82.576 228.792C82.3093 229.293 81.8827 229.704 81.296 230.024C80.7093 230.333 79.9573 230.488 79.04 230.488H77.024V235H75.2V223.88H79.04C79.8933 223.88 80.6133 224.029 81.2 224.328C81.7973 224.616 82.24 225.011 82.528 225.512C82.8267 226.013 82.976 226.573 82.976 227.192ZM79.04 229.064C79.7333 229.064 80.2507 228.899 80.592 228.568C80.9333 228.237 81.104 227.779 81.104 227.192C81.104 226.595 80.9333 226.131 80.592 225.8C80.2507 225.469 79.7333 225.304 79.04 225.304H77.024V229.064H79.04ZM86.5396 227.72C86.8063 227.187 87.1583 226.776 87.5956 226.488C88.0436 226.189 88.5716 226.04 89.1796 226.04V227.928H88.7156C88.001 227.928 87.457 228.109 87.0836 228.472C86.721 228.835 86.5396 229.464 86.5396 230.36V235H84.7156V226.184H86.5396V227.72ZM98.9363 230.344C98.9363 230.653 98.9149 230.941 98.8723 231.208H92.1203C92.1736 231.944 92.4349 232.531 92.9043 232.968C93.3736 233.395 93.9549 233.608 94.6483 233.608C95.6296 233.608 96.3229 233.197 96.7283 232.376H98.6962C98.4296 233.187 97.9443 233.853 97.2403 234.376C96.5469 234.888 95.6829 235.144 94.6483 235.144C93.8056 235.144 93.0483 234.957 92.3763 234.584C91.7149 234.2 91.1923 233.667 90.8083 232.984C90.4349 232.291 90.2483 231.491 90.2483 230.584C90.2483 229.677 90.4296 228.883 90.7923 228.2C91.1656 227.507 91.6829 226.973 92.3443 226.6C93.0163 226.227 93.7843 226.04 94.6483 226.04C95.4803 226.04 96.2216 226.221 96.8723 226.584C97.5229 226.947 98.0296 227.453 98.3923 228.104C98.7549 228.755 98.9363 229.501 98.9363 230.344ZM97.0323 229.896C97.0216 229.181 96.7816 228.616 96.3123 228.2C95.8536 227.784 95.2723 227.576 94.5683 227.576C93.9283 227.576 93.3789 227.784 92.9203 228.2C92.4723 228.616 92.2109 229.181 92.1363 229.896H97.0323ZM103.899 235.144C103.217 235.144 102.603 235.021 102.059 234.776C101.515 234.52 101.083 234.179 100.763 233.752C100.443 233.315 100.273 232.829 100.251 232.296H102.139C102.171 232.701 102.347 233.037 102.667 233.304C102.998 233.571 103.409 233.704 103.899 233.704C104.411 233.704 104.806 233.603 105.083 233.4C105.371 233.187 105.515 232.904 105.515 232.552C105.515 232.232 105.355 231.987 105.035 231.816C104.715 231.645 104.219 231.475 103.547 231.304C102.897 231.123 102.363 230.952 101.947 230.792C101.542 230.621 101.19 230.365 100.891 230.024C100.593 229.672 100.443 229.219 100.443 228.664C100.443 228.184 100.577 227.747 100.843 227.352C101.11 226.947 101.494 226.627 101.995 226.392C102.507 226.157 103.105 226.04 103.787 226.04C104.79 226.04 105.595 226.296 106.203 226.808C106.822 227.309 107.153 227.997 107.195 228.872H105.371C105.339 228.445 105.179 228.109 104.891 227.864C104.603 227.608 104.214 227.48 103.723 227.48C103.243 227.48 102.875 227.581 102.619 227.784C102.363 227.976 102.235 228.237 102.235 228.568C102.235 228.803 102.321 229 102.491 229.16C102.662 229.32 102.875 229.448 103.131 229.544C103.387 229.629 103.75 229.736 104.219 229.864C104.859 230.035 105.382 230.205 105.787 230.376C106.193 230.547 106.539 230.808 106.827 231.16C107.115 231.501 107.259 231.949 107.259 232.504C107.259 233.005 107.126 233.459 106.859 233.864C106.593 234.259 106.203 234.573 105.691 234.808C105.19 235.032 104.593 235.144 103.899 235.144ZM112.446 235.144C111.763 235.144 111.15 235.021 110.606 234.776C110.062 234.52 109.63 234.179 109.31 233.752C108.99 233.315 108.819 232.829 108.798 232.296H110.686C110.718 232.701 110.894 233.037 111.214 233.304C111.545 233.571 111.955 233.704 112.446 233.704C112.958 233.704 113.353 233.603 113.63 233.4C113.918 233.187 114.062 232.904 114.062 232.552C114.062 232.232 113.902 231.987 113.582 231.816C113.262 231.645 112.766 231.475 112.094 231.304C111.443 231.123 110.91 230.952 110.494 230.792C110.089 230.621 109.737 230.365 109.438 230.024C109.139 229.672 108.99 229.219 108.99 228.664C108.99 228.184 109.123 227.747 109.39 227.352C109.657 226.947 110.041 226.627 110.542 226.392C111.054 226.157 111.651 226.04 112.334 226.04C113.337 226.04 114.142 226.296 114.75 226.808C115.369 227.309 115.699 227.997 115.742 228.872H113.918C113.886 228.445 113.726 228.109 113.438 227.864C113.15 227.608 112.761 227.48 112.27 227.48C111.79 227.48 111.422 227.581 111.166 227.784C110.91 227.976 110.782 228.237 110.782 228.568C110.782 228.803 110.867 229 111.038 229.16C111.209 229.32 111.422 229.448 111.678 229.544C111.934 229.629 112.297 229.736 112.766 229.864C113.406 230.035 113.929 230.205 114.334 230.376C114.739 230.547 115.086 230.808 115.374 231.16C115.662 231.501 115.806 231.949 115.806 232.504C115.806 233.005 115.673 233.459 115.406 233.864C115.139 234.259 114.75 234.573 114.238 234.808C113.737 235.032 113.139 235.144 112.446 235.144ZM118.753 225.016C118.422 225.016 118.145 224.904 117.921 224.68C117.697 224.456 117.585 224.179 117.585 223.848C117.585 223.517 117.697 223.24 117.921 223.016C118.145 222.792 118.422 222.68 118.753 222.68C119.073 222.68 119.345 222.792 119.569 223.016C119.793 223.24 119.905 223.517 119.905 223.848C119.905 224.179 119.793 224.456 119.569 224.68C119.345 224.904 119.073 225.016 118.753 225.016ZM119.649 226.184V235H117.825V226.184H119.649ZM125.868 235.144C125.036 235.144 124.284 234.957 123.612 234.584C122.94 234.2 122.412 233.667 122.028 232.984C121.644 232.291 121.452 231.491 121.452 230.584C121.452 229.688 121.649 228.893 122.044 228.2C122.438 227.507 122.977 226.973 123.66 226.6C124.342 226.227 125.105 226.04 125.948 226.04C126.79 226.04 127.553 226.227 128.236 226.6C128.918 226.973 129.457 227.507 129.852 228.2C130.246 228.893 130.444 229.688 130.444 230.584C130.444 231.48 130.241 232.275 129.836 232.968C129.43 233.661 128.876 234.2 128.172 234.584C127.478 234.957 126.71 235.144 125.868 235.144ZM125.868 233.608C126.337 233.608 126.774 233.491 127.18 233.256C127.596 233.021 127.932 232.68 128.188 232.232C128.444 231.773 128.572 231.224 128.572 230.584C128.572 229.944 128.449 229.4 128.204 228.952C127.958 228.493 127.633 228.152 127.228 227.928C126.822 227.693 126.385 227.576 125.916 227.576C125.446 227.576 125.014 227.693 124.62 227.928C124.225 228.152 123.905 228.493 123.66 228.952C123.425 229.4 123.308 229.944 123.308 230.584C123.308 231.224 123.42 231.773 123.644 232.232C123.878 232.691 124.188 233.037 124.572 233.272C124.966 233.496 125.398 233.608 125.868 233.608ZM136.695 226.04C137.388 226.04 138.007 226.184 138.551 226.472C139.106 226.76 139.538 227.187 139.847 227.752C140.156 228.317 140.311 229 140.311 229.8V235H138.503V230.072C138.503 229.283 138.306 228.68 137.911 228.264C137.516 227.837 136.978 227.624 136.295 227.624C135.612 227.624 135.068 227.837 134.663 228.264C134.268 228.68 134.071 229.283 134.071 230.072V235H132.247V226.184H134.071V227.192C134.37 226.829 134.748 226.547 135.207 226.344C135.676 226.141 136.172 226.04 136.695 226.04ZM142.03 229.416C142.03 228.328 142.28 227.352 142.782 226.488C143.294 225.624 143.982 224.952 144.846 224.472C145.72 223.981 146.675 223.736 147.71 223.736C148.894 223.736 149.944 224.029 150.862 224.616C151.79 225.192 152.462 226.013 152.878 227.08H150.686C150.398 226.525 149.998 226.109 149.486 225.832C148.974 225.544 148.382 225.4 147.71 225.4C146.974 225.4 146.318 225.565 145.742 225.896C145.166 226.227 144.712 226.696 144.382 227.304C144.062 227.912 143.902 228.616 143.902 229.416C143.902 230.216 144.062 230.925 144.382 231.544C144.712 232.152 145.166 232.621 145.742 232.952C146.318 233.283 146.974 233.448 147.71 233.448C148.382 233.448 148.974 233.309 149.486 233.032C149.998 232.744 150.398 232.323 150.686 231.768H152.878C152.462 232.835 151.79 233.656 150.862 234.232C149.944 234.808 148.894 235.096 147.71 235.096C146.664 235.096 145.71 234.856 144.846 234.376C143.982 233.885 143.294 233.208 142.782 232.344C142.28 231.48 142.03 230.504 142.03 229.416Z" fill="#B81DDA"/>
<defs>
<filter id="filter0_d_2031_103" x="0" y="57" width="378" height="270" filterUnits="userSpaceOnUse" color-interpolation-filters="sRGB">
<feFlood flood-opacity="0" result="BackgroundImageFix"/>
<feColorMatrix in="SourceAlpha" type="matrix" values="0 0 0 0 0 0 0 0 0 0 0 0 0 0 0 0 0 0 127 0" result="hardAlpha"/>
<feOffset dy="14"/>
<feGaussianBlur stdDeviation="15"/>
<feComposite in2="hardAlpha" operator="out"/>
<feColorMatrix type="matrix" values="0 0 0 0 0 0 0 0 0 0 0 0 0 0 0 0 0 0 0.05 0"/>
<feBlend mode="normal" in2="BackgroundImageFix" result="effect1_dropShadow_2031_103"/>
<feBlend mode="normal" in="SourceGraphic" in2="effect1_dropShadow_2031_103" result="shape"/>
</filter>
<linearGradient id="paint0_linear_2031_103" x1="189" y1="103" x2="189" y2="143" gradientUnits="userSpaceOnUse">
<stop stop-color="white"/>
<stop offset="1" stop-color="#F3F3F3"/>
</linearGradient>
</defs>
</svg>
