<svg width="24" height="24" viewBox="0 0 24 24" fill="none" xmlns="http://www.w3.org/2000/svg">
<path d="M22.001 12C22.001 17.522 17.524 22 12.001 22C6.47798 22 2.00098 17.522 2.00098 12C2.00098 6.478 6.47798 2 12.001 2C17.524 2 22.001 6.477 22.001 12ZM5.20098 10.664C4.84691 10.664 4.50735 10.8047 4.25699 11.055C4.00663 11.3054 3.86598 11.6449 3.86598 11.999C3.86598 12.3531 4.00663 12.6926 4.25699 12.943C4.50735 13.1933 4.84691 13.334 5.20098 13.334C5.55504 13.334 5.8946 13.1933 6.14496 12.943C6.39533 12.6926 6.53598 12.3531 6.53598 11.999C6.53598 11.6449 6.39533 11.3054 6.14496 11.055C5.8946 10.8047 5.55504 10.664 5.20098 10.664ZM14.734 16.733C14.5788 16.8187 14.4422 16.9346 14.3323 17.0737C14.2224 17.2128 14.1413 17.3725 14.0938 17.5433C14.0463 17.7142 14.0333 17.8927 14.0557 18.0686C14.078 18.2446 14.1352 18.4142 14.2238 18.5678C14.3125 18.7213 14.4309 18.8557 14.5721 18.9629C14.7133 19.0702 14.8745 19.1482 15.0462 19.1925C15.2179 19.2367 15.3967 19.2463 15.5721 19.2206C15.7476 19.195 15.9161 19.1346 16.068 19.043C16.3672 18.8625 16.5836 18.5719 16.6708 18.2335C16.758 17.8952 16.709 17.5361 16.5342 17.2336C16.3595 16.931 16.073 16.709 15.7364 16.6154C15.3997 16.5218 15.0398 16.564 14.734 16.733ZM8.09998 12C8.09998 10.68 8.75598 9.515 9.75898 8.81L8.78198 7.174C7.59546 7.96471 6.74178 9.16477 6.38398 10.545C6.60028 10.7208 6.77466 10.9426 6.89443 11.1943C7.01421 11.446 7.07635 11.7213 7.07635 12C7.07635 12.2787 7.01421 12.554 6.89443 12.8057C6.77466 13.0574 6.60028 13.2792 6.38398 13.455C6.74178 14.8352 7.59546 16.0353 8.78198 16.826L9.75898 15.19C9.24619 14.831 8.82761 14.3535 8.53879 13.7982C8.24997 13.2428 8.09944 12.626 8.09998 12ZM12 8.1C12.9743 8.10016 13.9133 8.46501 14.6321 9.12276C15.351 9.78051 15.7975 10.6835 15.884 11.654L17.787 11.626C17.6963 10.2022 17.0822 8.86226 16.063 7.864C15.8031 7.9627 15.5244 8.00226 15.2473 7.97982C14.9702 7.95738 14.7016 7.87349 14.4609 7.73426C14.2203 7.59502 14.0137 7.40393 13.8561 7.17487C13.6985 6.94581 13.5939 6.68452 13.55 6.41C12.1752 6.0318 10.7094 6.17054 9.42998 6.8L10.357 8.463C10.8717 8.22389 11.4324 8.10001 12 8.1ZM12 15.9C11.4328 15.8998 10.8724 15.776 10.358 15.537L9.42998 17.199C10.7078 17.834 12.1757 17.9729 13.55 17.589C13.5939 17.3144 13.6985 17.0529 13.8561 16.8238C14.0138 16.5946 14.2205 16.4035 14.4612 16.2642C14.702 16.125 14.9708 16.0411 15.248 16.0188C15.5253 15.9964 15.804 16.0361 16.064 16.135C17.0829 15.1366 17.6966 13.7967 17.787 12.373L15.884 12.346C15.7975 13.3165 15.351 14.2195 14.6321 14.8772C13.9133 15.535 12.9743 15.8998 12 15.9ZM14.732 7.267C14.8839 7.35752 15.0523 7.41695 15.2274 7.44183C15.4025 7.46672 15.5808 7.45658 15.7519 7.41198C15.923 7.36739 16.0836 7.28923 16.2243 7.18206C16.365 7.07489 16.4829 6.94084 16.5714 6.78768C16.6598 6.63453 16.7169 6.46534 16.7394 6.28992C16.7619 6.11451 16.7493 5.93637 16.7024 5.76587C16.6555 5.59536 16.5751 5.43587 16.4661 5.29667C16.357 5.15747 16.2213 5.04133 16.067 4.955C15.7607 4.7837 15.3993 4.73987 15.061 4.83298C14.7227 4.9261 14.4346 5.14868 14.2592 5.45256C14.0837 5.75644 14.0349 6.11719 14.1234 6.45676C14.2119 6.79632 14.4305 7.0874 14.732 7.267Z" fill="white"/>
</svg>
