<svg width="24" height="24" viewBox="0 0 24 24" fill="none" xmlns="http://www.w3.org/2000/svg">
<g clip-path="url(#clip0_2031_151)">
<path d="M23.7024 0.177427C23.7953 0.252395 23.8702 0.347202 23.9217 0.454899C23.9732 0.562596 24 0.680452 24 0.799827V11.1998H11.2V2.55343L23.032 0.0158275C23.1488 -0.0094054 23.2699 -0.00813074 23.3862 0.0195578C23.5025 0.0472463 23.6111 0.100645 23.704 0.175827M9.6 2.89583L0.632 4.81743C0.453047 4.85586 0.292685 4.9545 0.177671 5.09689C0.0626567 5.23927 -5.46193e-05 5.41679 3.5695e-08 5.59983V11.1998H9.6V2.89583ZM3.5695e-08 12.7998V19.9998C2.92382e-05 20.1926 0.0696481 20.3788 0.196053 20.5243C0.322458 20.6699 0.497149 20.7648 0.688 20.7918L9.6 22.0654V12.7998H3.5695e-08ZM11.2 22.2942L23.088 23.9918C23.2014 24.0079 23.3169 23.9994 23.4267 23.9669C23.5365 23.9345 23.6381 23.8788 23.7246 23.8037C23.811 23.7286 23.8803 23.6359 23.9279 23.5317C23.9754 23.4275 24 23.3143 24 23.1998V12.7998H11.2V22.2942Z" fill="white"/>
</g>
<defs>
<clipPath id="clip0_2031_151">
<rect width="24" height="24" fill="white"/>
</clipPath>
</defs>
</svg>
